<svg width="120" height="120" viewBox="0 0 120 120" fill="none" xmlns="http://www.w3.org/2000/svg">
  <circle cx="60" cy="60" r="60" fill="#1F1A36"/>
  <path d="M60 12C33.49 12 12 33.49 12 60C12 86.51 33.49 108 60 108C86.51 108 108 86.51 108 60C108 33.49 86.51 12 60 12ZM60 24C79.88 24 96 40.12 96 60C96 79.88 79.88 96 60 96C40.12 96 24 79.88 24 60C24 40.12 40.12 24 60 24Z" fill="#6638F0"/>
  <circle cx="60" cy="60" r="24" fill="#7C4DFF"/>
  <path d="M60 48C53.37 48 48 53.37 48 60C48 66.63 53.37 72 60 72C66.63 72 72 66.63 72 60C72 53.37 66.63 48 60 48ZM60 52C64.42 52 68 55.58 68 60C68 64.42 64.42 68 60 68C55.58 68 52 64.42 52 60C52 55.58 55.58 52 60 52Z" fill="#D4C5FF"/>
  <circle cx="60" cy="60" r="8" fill="#FFFFFF"/>
  <circle cx="44" cy="36" r="4" fill="#6638F0"/>
  <circle cx="76" cy="36" r="4" fill="#6638F0"/>
  <circle cx="44" cy="84" r="4" fill="#6638F0"/>
  <circle cx="76" cy="84" r="4" fill="#6638F0"/>
  <path d="M60 36L76 52H44L60 36Z" fill="#A387FF"/>
  <path d="M60 84L44 68H76L60 84Z" fill="#A387FF"/>
  <!-- Connection lines -->
  <path d="M60 32L60 24" stroke="#7C4DFF" stroke-width="2"/>
  <path d="M60 96L60 88" stroke="#7C4DFF" stroke-width="2"/>
  <path d="M32 60L24 60" stroke="#7C4DFF" stroke-width="2"/>
  <path d="M96 60L88 60" stroke="#7C4DFF" stroke-width="2"/>
  <!-- Diagonal connection lines -->
  <path d="M81.6 38.4L87.27 32.73" stroke="#7C4DFF" stroke-width="2"/>
  <path d="M38.4 38.4L32.73 32.73" stroke="#7C4DFF" stroke-width="2"/>
  <path d="M81.6 81.6L87.27 87.27" stroke="#7C4DFF" stroke-width="2"/>
  <path d="M38.4 81.6L32.73 87.27" stroke="#7C4DFF" stroke-width="2"/>
  <!-- Pulses -->
  <circle cx="60" cy="60" r="32" stroke="#6638F0" stroke-width="1" stroke-dasharray="4 4" opacity="0.6">
    <animate attributeName="r" from="32" to="36" dur="3s" repeatCount="indefinite" />
    <animate attributeName="opacity" from="0.6" to="0" dur="3s" repeatCount="indefinite" />
  </circle>
  <circle cx="60" cy="60" r="24" stroke="#7C4DFF" stroke-width="1" stroke-dasharray="4 4" opacity="0.6">
    <animate attributeName="r" from="24" to="28" dur="3s" repeatCount="indefinite" begin="0.5s" />
    <animate attributeName="opacity" from="0.6" to="0" dur="3s" repeatCount="indefinite" begin="0.5s" />
  </circle>
  <circle cx="60" cy="60" r="16" stroke="#A387FF" stroke-width="1" stroke-dasharray="4 4" opacity="0.6">
    <animate attributeName="r" from="16" to="20" dur="3s" repeatCount="indefinite" begin="1s" />
    <animate attributeName="opacity" from="0.6" to="0" dur="3s" repeatCount="indefinite" begin="1s" />
  </circle>
</svg>